<svg width="32" height="32" viewBox="0 0 32 32" fill="none" xmlns="http://www.w3.org/2000/svg">
<path d="M28.4445 25.7778H3.55564C3.31989 25.7778 3.0938 25.6841 2.9271 25.5174C2.7604 25.3507 2.66675 25.1246 2.66675 24.8889C2.66675 24.6531 2.7604 24.427 2.9271 24.2603C3.0938 24.0936 3.31989 24 3.55564 24H28.4445C28.6803 24 28.9064 24.0936 29.0731 24.2603C29.2398 24.427 29.3334 24.6531 29.3334 24.8889C29.3334 25.1246 29.2398 25.3507 29.0731 25.5174C28.9064 25.6841 28.6803 25.7778 28.4445 25.7778Z" fill="black"/>
<path d="M28.4445 16.8889H3.55564C3.31989 16.8889 3.0938 16.7952 2.9271 16.6285C2.7604 16.4618 2.66675 16.2357 2.66675 16C2.66675 15.7642 2.7604 15.5381 2.9271 15.3714C3.0938 15.2047 3.31989 15.1111 3.55564 15.1111H28.4445C28.6803 15.1111 28.9064 15.2047 29.0731 15.3714C29.2398 15.5381 29.3334 15.7642 29.3334 16C29.3334 16.2357 29.2398 16.4618 29.0731 16.6285C28.9064 16.7952 28.6803 16.8889 28.4445 16.8889Z" fill="black"/>
<path d="M28.4445 8.00001H3.55564C3.31989 8.00001 3.0938 7.90636 2.9271 7.73966C2.7604 7.57296 2.66675 7.34687 2.66675 7.11112C2.66675 6.87537 2.7604 6.64928 2.9271 6.48258C3.0938 6.31588 3.31989 6.22223 3.55564 6.22223H28.4445C28.6803 6.22223 28.9064 6.31588 29.0731 6.48258C29.2398 6.64928 29.3334 6.87537 29.3334 7.11112C29.3334 7.34687 29.2398 7.57296 29.0731 7.73966C28.9064 7.90636 28.6803 8.00001 28.4445 8.00001Z" fill="black"/>
</svg>
