<svg width="125" height="28" viewBox="0 0 125 28" fill="none" xmlns="http://www.w3.org/2000/svg">
<path d="M0.4 28V0.399998H5.72L17.96 20.08V0.399998H22.84V28H17.56L5.28 8.32V28H0.4ZM29.6578 28V0.399998H48.2178V4.84H34.5378V11.48H47.0178V15.92H34.5378V23.56H48.2178V28H29.6578ZM51.3631 27L60.1631 13.8L51.8831 1.4L52.3631 0.399998H56.6431L62.8431 9.92L69.0831 0.399998H73.3631L73.8431 1.4L65.5631 13.8L74.3631 27L73.8831 28H69.6031L62.8431 17.68L56.1231 28H51.8431L51.3631 27ZM78.6756 21.48V0.399998H83.5556V21.84C83.5556 22.9867 84.1423 23.56 85.3156 23.56H93.4356C94.609 23.56 95.1956 22.9867 95.1956 21.84V0.399998H100.076V21.48C100.076 25.8267 97.9023 28 93.5556 28H85.1956C80.849 28 78.6756 25.8267 78.6756 21.48ZM105.45 26.16V23.56H117.81C118.983 23.56 119.57 22.9867 119.57 21.84V18.8C119.57 17.7867 119.117 17.1867 118.21 17L110.09 15.36C106.997 14.7467 105.45 12.6667 105.45 9.12V6.92C105.45 2.57333 107.623 0.399998 111.97 0.399998H121.29L123.65 2.24V4.84H112.09C110.917 4.84 110.33 5.41333 110.33 6.56V9.24C110.33 10.2533 110.783 10.8533 111.69 11.04L119.81 12.64C122.903 13.28 124.45 15.36 124.45 18.88V21.48C124.45 25.8267 122.277 28 117.93 28H107.81L105.45 26.16Z" fill="#19191B"/>
<path d="M0.4 28V0.399998H5.72L17.96 20.08V0.399998H22.84V28H17.56L5.28 8.32V28H0.4ZM29.6578 28V0.399998H48.2178V4.84H34.5378V11.48H47.0178V15.92H34.5378V23.56H48.2178V28H29.6578ZM51.3631 27L60.1631 13.8L51.8831 1.4L52.3631 0.399998H56.6431L62.8431 9.92L69.0831 0.399998H73.3631L73.8431 1.4L65.5631 13.8L74.3631 27L73.8831 28H69.6031L62.8431 17.68L56.1231 28H51.8431L51.3631 27ZM78.6756 21.48V0.399998H83.5556V21.84C83.5556 22.9867 84.1423 23.56 85.3156 23.56H93.4356C94.609 23.56 95.1956 22.9867 95.1956 21.84V0.399998H100.076V21.48C100.076 25.8267 97.9023 28 93.5556 28H85.1956C80.849 28 78.6756 25.8267 78.6756 21.48ZM105.45 26.16V23.56H117.81C118.983 23.56 119.57 22.9867 119.57 21.84V18.8C119.57 17.7867 119.117 17.1867 118.21 17L110.09 15.36C106.997 14.7467 105.45 12.6667 105.45 9.12V6.92C105.45 2.57333 107.623 0.399998 111.97 0.399998H121.29L123.65 2.24V4.84H112.09C110.917 4.84 110.33 5.41333 110.33 6.56V9.24C110.33 10.2533 110.783 10.8533 111.69 11.04L119.81 12.64C122.903 13.28 124.45 15.36 124.45 18.88V21.48C124.45 25.8267 122.277 28 117.93 28H107.81L105.45 26.16Z" fill="#19191B"/>
<path d="M0.4 28V0.399998H5.72L17.96 20.08V0.399998H22.84V28H17.56L5.28 8.32V28H0.4ZM29.6578 28V0.399998H48.2178V4.84H34.5378V11.48H47.0178V15.92H34.5378V23.56H48.2178V28H29.6578ZM51.3631 27L60.1631 13.8L51.8831 1.4L52.3631 0.399998H56.6431L62.8431 9.92L69.0831 0.399998H73.3631L73.8431 1.4L65.5631 13.8L74.3631 27L73.8831 28H69.6031L62.8431 17.68L56.1231 28H51.8431L51.3631 27ZM78.6756 21.48V0.399998H83.5556V21.84C83.5556 22.9867 84.1423 23.56 85.3156 23.56H93.4356C94.609 23.56 95.1956 22.9867 95.1956 21.84V0.399998H100.076V21.48C100.076 25.8267 97.9023 28 93.5556 28H85.1956C80.849 28 78.6756 25.8267 78.6756 21.48ZM105.45 26.16V23.56H117.81C118.983 23.56 119.57 22.9867 119.57 21.84V18.8C119.57 17.7867 119.117 17.1867 118.21 17L110.09 15.36C106.997 14.7467 105.45 12.6667 105.45 9.12V6.92C105.45 2.57333 107.623 0.399998 111.97 0.399998H121.29L123.65 2.24V4.84H112.09C110.917 4.84 110.33 5.41333 110.33 6.56V9.24C110.33 10.2533 110.783 10.8533 111.69 11.04L119.81 12.64C122.903 13.28 124.45 15.36 124.45 18.88V21.48C124.45 25.8267 122.277 28 117.93 28H107.81L105.45 26.16Z" fill="#19191B"/>
<path d="M0.4 28V0.399998H5.72L17.96 20.08V0.399998H22.84V28H17.56L5.28 8.32V28H0.4ZM29.6578 28V0.399998H48.2178V4.84H34.5378V11.48H47.0178V15.92H34.5378V23.56H48.2178V28H29.6578ZM51.3631 27L60.1631 13.8L51.8831 1.4L52.3631 0.399998H56.6431L62.8431 9.92L69.0831 0.399998H73.3631L73.8431 1.4L65.5631 13.8L74.3631 27L73.8831 28H69.6031L62.8431 17.68L56.1231 28H51.8431L51.3631 27ZM78.6756 21.48V0.399998H83.5556V21.84C83.5556 22.9867 84.1423 23.56 85.3156 23.56H93.4356C94.609 23.56 95.1956 22.9867 95.1956 21.84V0.399998H100.076V21.48C100.076 25.8267 97.9023 28 93.5556 28H85.1956C80.849 28 78.6756 25.8267 78.6756 21.48ZM105.45 26.16V23.56H117.81C118.983 23.56 119.57 22.9867 119.57 21.84V18.8C119.57 17.7867 119.117 17.1867 118.21 17L110.09 15.36C106.997 14.7467 105.45 12.6667 105.45 9.12V6.92C105.45 2.57333 107.623 0.399998 111.97 0.399998H121.29L123.65 2.24V4.84H112.09C110.917 4.84 110.33 5.41333 110.33 6.56V9.24C110.33 10.2533 110.783 10.8533 111.69 11.04L119.81 12.64C122.903 13.28 124.45 15.36 124.45 18.88V21.48C124.45 25.8267 122.277 28 117.93 28H107.81L105.45 26.16Z" fill="#19191B"/>
<path d="M0.4 28V0.399998H5.72L17.96 20.08V0.399998H22.84V28H17.56L5.28 8.32V28H0.4ZM29.6578 28V0.399998H48.2178V4.84H34.5378V11.48H47.0178V15.92H34.5378V23.56H48.2178V28H29.6578ZM51.3631 27L60.1631 13.8L51.8831 1.4L52.3631 0.399998H56.6431L62.8431 9.92L69.0831 0.399998H73.3631L73.8431 1.4L65.5631 13.8L74.3631 27L73.8831 28H69.6031L62.8431 17.68L56.1231 28H51.8431L51.3631 27ZM78.6756 21.48V0.399998H83.5556V21.84C83.5556 22.9867 84.1423 23.56 85.3156 23.56H93.4356C94.609 23.56 95.1956 22.9867 95.1956 21.84V0.399998H100.076V21.48C100.076 25.8267 97.9023 28 93.5556 28H85.1956C80.849 28 78.6756 25.8267 78.6756 21.48ZM105.45 26.16V23.56H117.81C118.983 23.56 119.57 22.9867 119.57 21.84V18.8C119.57 17.7867 119.117 17.1867 118.21 17L110.09 15.36C106.997 14.7467 105.45 12.6667 105.45 9.12V6.92C105.45 2.57333 107.623 0.399998 111.97 0.399998H121.29L123.65 2.24V4.84H112.09C110.917 4.84 110.33 5.41333 110.33 6.56V9.24C110.33 10.2533 110.783 10.8533 111.69 11.04L119.81 12.64C122.903 13.28 124.45 15.36 124.45 18.88V21.48C124.45 25.8267 122.277 28 117.93 28H107.81L105.45 26.16Z" fill="#19191B"/>
</svg>
