<svg width="100" height="23" viewBox="0 0 100 23" fill="none" xmlns="http://www.w3.org/2000/svg">
<path d="M0.72 23V0.919998H4.976L14.768 16.664V0.919998H18.672V23H14.448L4.624 7.256V23H0.72ZM24.1263 23V0.919998H38.9743V4.472H28.0303V9.784H38.0143V13.336H28.0303V19.448H38.9743V23H24.1263ZM41.4905 22.2L48.5305 11.64L41.9065 1.72L42.2905 0.919998H45.7145L50.6745 8.536L55.6665 0.919998H59.0905L59.4745 1.72L52.8505 11.64L59.8905 22.2L59.5065 23H56.0825L50.6745 14.744L45.2985 23H41.8745L41.4905 22.2ZM63.3405 17.784V0.919998H67.2445V18.072C67.2445 18.9893 67.7138 19.448 68.6525 19.448H75.1485C76.0872 19.448 76.5565 18.9893 76.5565 18.072V0.919998H80.4605V17.784C80.4605 21.2613 78.7218 23 75.2445 23H68.5565C65.0792 23 63.3405 21.2613 63.3405 17.784ZM84.76 21.528V19.448H94.648C95.5867 19.448 96.056 18.9893 96.056 18.072V15.64C96.056 14.8293 95.6933 14.3493 94.968 14.2L88.472 12.888C85.9973 12.3973 84.76 10.7333 84.76 7.896V6.136C84.76 2.65867 86.4987 0.919998 89.976 0.919998H97.432L99.32 2.392V4.472H90.072C89.1333 4.472 88.664 4.93067 88.664 5.848V7.992C88.664 8.80267 89.0267 9.28267 89.752 9.432L96.248 10.712C98.7227 11.224 99.96 12.888 99.96 15.704V17.784C99.96 21.2613 98.2213 23 94.744 23H86.648L84.76 21.528Z" fill="#19191B"/>
<path d="M0.72 23V0.919998H4.976L14.768 16.664V0.919998H18.672V23H14.448L4.624 7.256V23H0.72ZM24.1263 23V0.919998H38.9743V4.472H28.0303V9.784H38.0143V13.336H28.0303V19.448H38.9743V23H24.1263ZM41.4905 22.2L48.5305 11.64L41.9065 1.72L42.2905 0.919998H45.7145L50.6745 8.536L55.6665 0.919998H59.0905L59.4745 1.72L52.8505 11.64L59.8905 22.2L59.5065 23H56.0825L50.6745 14.744L45.2985 23H41.8745L41.4905 22.2ZM63.3405 17.784V0.919998H67.2445V18.072C67.2445 18.9893 67.7138 19.448 68.6525 19.448H75.1485C76.0872 19.448 76.5565 18.9893 76.5565 18.072V0.919998H80.4605V17.784C80.4605 21.2613 78.7218 23 75.2445 23H68.5565C65.0792 23 63.3405 21.2613 63.3405 17.784ZM84.76 21.528V19.448H94.648C95.5867 19.448 96.056 18.9893 96.056 18.072V15.64C96.056 14.8293 95.6933 14.3493 94.968 14.2L88.472 12.888C85.9973 12.3973 84.76 10.7333 84.76 7.896V6.136C84.76 2.65867 86.4987 0.919998 89.976 0.919998H97.432L99.32 2.392V4.472H90.072C89.1333 4.472 88.664 4.93067 88.664 5.848V7.992C88.664 8.80267 89.0267 9.28267 89.752 9.432L96.248 10.712C98.7227 11.224 99.96 12.888 99.96 15.704V17.784C99.96 21.2613 98.2213 23 94.744 23H86.648L84.76 21.528Z" fill="#19191B"/>
<path d="M0.72 23V0.919998H4.976L14.768 16.664V0.919998H18.672V23H14.448L4.624 7.256V23H0.72ZM24.1263 23V0.919998H38.9743V4.472H28.0303V9.784H38.0143V13.336H28.0303V19.448H38.9743V23H24.1263ZM41.4905 22.2L48.5305 11.64L41.9065 1.72L42.2905 0.919998H45.7145L50.6745 8.536L55.6665 0.919998H59.0905L59.4745 1.72L52.8505 11.64L59.8905 22.2L59.5065 23H56.0825L50.6745 14.744L45.2985 23H41.8745L41.4905 22.2ZM63.3405 17.784V0.919998H67.2445V18.072C67.2445 18.9893 67.7138 19.448 68.6525 19.448H75.1485C76.0872 19.448 76.5565 18.9893 76.5565 18.072V0.919998H80.4605V17.784C80.4605 21.2613 78.7218 23 75.2445 23H68.5565C65.0792 23 63.3405 21.2613 63.3405 17.784ZM84.76 21.528V19.448H94.648C95.5867 19.448 96.056 18.9893 96.056 18.072V15.64C96.056 14.8293 95.6933 14.3493 94.968 14.2L88.472 12.888C85.9973 12.3973 84.76 10.7333 84.76 7.896V6.136C84.76 2.65867 86.4987 0.919998 89.976 0.919998H97.432L99.32 2.392V4.472H90.072C89.1333 4.472 88.664 4.93067 88.664 5.848V7.992C88.664 8.80267 89.0267 9.28267 89.752 9.432L96.248 10.712C98.7227 11.224 99.96 12.888 99.96 15.704V17.784C99.96 21.2613 98.2213 23 94.744 23H86.648L84.76 21.528Z" fill="#19191B"/>
<path d="M0.72 23V0.919998H4.976L14.768 16.664V0.919998H18.672V23H14.448L4.624 7.256V23H0.72ZM24.1263 23V0.919998H38.9743V4.472H28.0303V9.784H38.0143V13.336H28.0303V19.448H38.9743V23H24.1263ZM41.4905 22.2L48.5305 11.64L41.9065 1.72L42.2905 0.919998H45.7145L50.6745 8.536L55.6665 0.919998H59.0905L59.4745 1.72L52.8505 11.64L59.8905 22.2L59.5065 23H56.0825L50.6745 14.744L45.2985 23H41.8745L41.4905 22.2ZM63.3405 17.784V0.919998H67.2445V18.072C67.2445 18.9893 67.7138 19.448 68.6525 19.448H75.1485C76.0872 19.448 76.5565 18.9893 76.5565 18.072V0.919998H80.4605V17.784C80.4605 21.2613 78.7218 23 75.2445 23H68.5565C65.0792 23 63.3405 21.2613 63.3405 17.784ZM84.76 21.528V19.448H94.648C95.5867 19.448 96.056 18.9893 96.056 18.072V15.64C96.056 14.8293 95.6933 14.3493 94.968 14.2L88.472 12.888C85.9973 12.3973 84.76 10.7333 84.76 7.896V6.136C84.76 2.65867 86.4987 0.919998 89.976 0.919998H97.432L99.32 2.392V4.472H90.072C89.1333 4.472 88.664 4.93067 88.664 5.848V7.992C88.664 8.80267 89.0267 9.28267 89.752 9.432L96.248 10.712C98.7227 11.224 99.96 12.888 99.96 15.704V17.784C99.96 21.2613 98.2213 23 94.744 23H86.648L84.76 21.528Z" fill="#19191B"/>
<path d="M0.72 23V0.919998H4.976L14.768 16.664V0.919998H18.672V23H14.448L4.624 7.256V23H0.72ZM24.1263 23V0.919998H38.9743V4.472H28.0303V9.784H38.0143V13.336H28.0303V19.448H38.9743V23H24.1263ZM41.4905 22.2L48.5305 11.64L41.9065 1.72L42.2905 0.919998H45.7145L50.6745 8.536L55.6665 0.919998H59.0905L59.4745 1.72L52.8505 11.64L59.8905 22.2L59.5065 23H56.0825L50.6745 14.744L45.2985 23H41.8745L41.4905 22.2ZM63.3405 17.784V0.919998H67.2445V18.072C67.2445 18.9893 67.7138 19.448 68.6525 19.448H75.1485C76.0872 19.448 76.5565 18.9893 76.5565 18.072V0.919998H80.4605V17.784C80.4605 21.2613 78.7218 23 75.2445 23H68.5565C65.0792 23 63.3405 21.2613 63.3405 17.784ZM84.76 21.528V19.448H94.648C95.5867 19.448 96.056 18.9893 96.056 18.072V15.64C96.056 14.8293 95.6933 14.3493 94.968 14.2L88.472 12.888C85.9973 12.3973 84.76 10.7333 84.76 7.896V6.136C84.76 2.65867 86.4987 0.919998 89.976 0.919998H97.432L99.32 2.392V4.472H90.072C89.1333 4.472 88.664 4.93067 88.664 5.848V7.992C88.664 8.80267 89.0267 9.28267 89.752 9.432L96.248 10.712C98.7227 11.224 99.96 12.888 99.96 15.704V17.784C99.96 21.2613 98.2213 23 94.744 23H86.648L84.76 21.528Z" fill="#19191B"/>
</svg>
